{
  "accessors": [
    {
      "bufferView": 2,
      "componentType": 5126,
      "count": 15762,
      "max": [
        49.047122955322266,
        116.97420501708984,
        39.15320587158203
      ],
      "min": [
        -166.65321350097656,
        -192.13787841796875,
        9.685785293579102
      ],
      "type": "VEC3"
    },
    {
      "bufferView": 2,
      "byteOffset": 189144,
      "componentType": 5126,
      "count": 15762,
      "max": [
        1.0,
        1.0,
        1.0
      ],
      "min": [
        -1.0,
        -1.0,
        -1.0
      ],
      "type": "VEC3"
    },
    {
      "bufferView": 3,
      "componentType": 5126,
      "count": 15762,
      "max": [
        1.0,
        1.0,
        1.0,
        1.0
      ],
      "min": [
        -1.0,
        -1.0,
        -1.0,
        1.0
      ],
      "type": "VEC4"
    },
    {
      "bufferView": 1,
      "componentType": 5126,
      "count": 15762,
      "max": [
        0.9897652268409729,
        0.9924113750457764
      ],
      "min": [
        0.006074379198253155,
        0.01043497771024704
      ],
      "type": "VEC2"
    },
    {
      "bufferView": 0,
      "componentType": 5125,
      "count": 43977,
      "type": "SCALAR"
    },
    {
      "bufferView": 2,
      "byteOffset": 378288,
      "componentType": 5126,
      "count": 17286,
      "max": [
        48.08209991455078,
        117.44084930419922,
        59.76355743408203
      ],
      "min": [
        -208.79953002929688,
        -205.5210723876953,
        10.864330291748047
      ],
      "type": "VEC3"
    },
    {
      "bufferView": 2,
      "byteOffset": 585720,
      "componentType": 5126,
      "count": 17286,
      "max": [
        1.0,
        1.0,
        1.0
      ],
      "min": [
        -1.0,
        -1.0,
        -1.0
      ],
      "type": "VEC3"
    },
    {
      "bufferView": 3,
      "byteOffset": 252192,
      "componentType": 5126,
      "count": 17286,
      "max": [
        1.0,
        1.0,
        1.0,
        1.0
      ],
      "min": [
        -1.0,
        -1.0,
        -1.0,
        -1.0
      ],
      "type": "VEC4"
    },
    {
      "bufferView": 1,
      "byteOffset": 126096,
      "componentType": 5126,
      "count": 17286,
      "max": [
        1.0,
        0.9932017922401428
      ],
      "min": [
        0.0,
        0.0
      ],
      "type": "VEC2"
    },
    {
      "bufferView": 0,
      "byteOffset": 175908,
      "componentType": 5125,
      "count": 42660,
      "type": "SCALAR"
    },
    {
      "bufferView": 2,
      "byteOffset": 793152,
      "componentType": 5126,
      "count": 6681,
      "max": [
        47.93494415283203,
        117.09038543701172,
        59.134239196777344
      ],
      "min": [
        -211.04200744628906,
        -205.69430541992188,
        9.830036163330078
      ],
      "type": "VEC3"
    },
    {
      "bufferView": 2,
      "byteOffset": 873324,
      "componentType": 5126,
      "count": 6681,
      "max": [
        1.0,
        1.0,
        1.0
      ],
      "min": [
        -1.0,
        -1.0,
        -1.0
      ],
      "type": "VEC3"
    },
    {
      "bufferView": 3,
      "byteOffset": 528768,
      "componentType": 5126,
      "count": 6681,
      "max": [
        1.0,
        1.0,
        1.0,
        1.0
      ],
      "min": [
        -1.0,
        -1.0,
        -1.0,
        -1.0
      ],
      "type": "VEC4"
    },
    {
      "bufferView": 1,
      "byteOffset": 264384,
      "componentType": 5126,
      "count": 6681,
      "max": [
        0.9942059516906738,
        0.9885116219520569
      ],
      "min": [
        0.008479133248329163,
        0.008014917373657227
      ],
      "type": "VEC2"
    },
    {
      "bufferView": 0,
      "byteOffset": 346548,
      "componentType": 5125,
      "count": 18246,
      "type": "SCALAR"
    }
  ],
  "asset": {
    "extras": {
      "author": "Igor.Jop (https://sketchfab.com/Igor.Jop)",
      "license": "CC-BY-4.0 (http://creativecommons.org/licenses/by/4.0/)",
      "source": "https://sketchfab.com/3d-models/x570-prime-motherboard-hq-pbr-25b3659935774b1e9d73d8954be065d8",
      "title": "X570 Prime motherboard [HQ PBR]"
    },
    "generator": "Sketchfab-16.31.0",
    "version": "2.0"
  },
  "bufferViews": [
    {
      "buffer": 0,
      "byteLength": 419532,
      "name": "floatBufferViews",
      "target": 34963
    },
    {
      "buffer": 0,
      "byteLength": 317832,
      "byteOffset": 419532,
      "byteStride": 8,
      "name": "floatBufferViews",
      "target": 34962
    },
    {
      "buffer": 0,
      "byteLength": 953496,
      "byteOffset": 737364,
      "byteStride": 12,
      "name": "floatBufferViews",
      "target": 34962
    },
    {
      "buffer": 0,
      "byteLength": 635664,
      "byteOffset": 1690860,
      "byteStride": 16,
      "name": "floatBufferViews",
      "target": 34962
    }
  ],
  "buffers": [
    {
      "byteLength": 2326524,
      "uri": "scene.bin"
    }
  ],
  "extensionsUsed": [
    "KHR_materials_emissive_strength"
  ],
  "images": [
    {
      "uri": "textures/M_sockets_baseColor.png"
    },
    {
      "uri": "textures/M_sockets_metallicRoughness.png"
    },
    {
      "uri": "textures/M_sockets_normal.png"
    },
    {
      "uri": "textures/M_Cover_baseColor.png"
    },
    {
      "uri": "textures/M_Cover_metallicRoughness.png"
    },
    {
      "uri": "textures/M_Cover_emissive.png"
    },
    {
      "uri": "textures/M_Cover_normal.png"
    },
    {
      "uri": "textures/M_Mobo_baseColor.png"
    },
    {
      "uri": "textures/M_Mobo_metallicRoughness.png"
    },
    {
      "uri": "textures/M_Mobo_normal.png"
    }
  ],
  "materials": [
    {
      "doubleSided": true,
      "name": "M_sockets",
      "normalTexture": {
        "index": 2
      },
      "pbrMetallicRoughness": {
        "baseColorTexture": {
          "index": 0
        },
        "metallicRoughnessTexture": {
          "index": 1
        }
      }
    },
    {
      "doubleSided": true,
      "emissiveFactor": [
        1.0,
        1.0,
        1.0
      ],
      "emissiveTexture": {
        "index": 5
      },
      "extensions": {
        "KHR_materials_emissive_strength": {
          "emissiveStrength": 1.1428606258609548
        }
      },
      "name": "M_Cover",
      "normalTexture": {
        "index": 6
      },
      "pbrMetallicRoughness": {
        "baseColorTexture": {
          "index": 3
        },
        "metallicRoughnessTexture": {
          "index": 4
        }
      }
    },
    {
      "doubleSided": true,
      "name": "M_Mobo",
      "normalTexture": {
        "index": 9
      },
      "pbrMetallicRoughness": {
        "baseColorTexture": {
          "index": 7
        },
        "metallicRoughnessTexture": {
          "index": 8
        }
      }
    }
  ],
  "meshes": [
    {
      "name": "polySurface21_M_sockets_0",
      "primitives": [
        {
          "attributes": {
            "NORMAL": 1,
            "POSITION": 0,
            "TANGENT": 2,
            "TEXCOORD_0": 3
          },
          "indices": 4,
          "material": 0,
          "mode": 4
        }
      ]
    },
    {
      "name": "polySurface20_f_2693_1_M_Cover_0",
      "primitives": [
        {
          "attributes": {
            "NORMAL": 6,
            "POSITION": 5,
            "TANGENT": 7,
            "TEXCOORD_0": 8
          },
          "indices": 9,
          "material": 1,
          "mode": 4
        }
      ]
    },
    {
      "name": "pCylinder41_M_Mobo_0",
      "primitives": [
        {
          "attributes": {
            "NORMAL": 11,
            "POSITION": 10,
            "TANGENT": 12,
            "TEXCOORD_0": 13
          },
          "indices": 14,
          "material": 2,
          "mode": 4
        }
      ]
    }
  ],
  "nodes": [
    {
      "children": [
        1
      ],
      "matrix": [
        1.0,
        0.0,
        0.0,
        0.0,
        0.0,
        2.220446049250313e-16,
        -1.0,
        0.0,
        0.0,
        1.0,
        2.220446049250313e-16,
        0.0,
        0.0,
        0.0,
        0.0,
        1.0
      ],
      "name": "Sketchfab_model"
    },
    {
      "children": [
        2
      ],
      "matrix": [
        0.009999999776482582,
        0.0,
        0.0,
        0.0,
        0.0,
        0.0,
        0.009999999776482582,
        0.0,
        0.0,
        -0.009999999776482582,
        0.0,
        0.0,
        0.0,
        0.0,
        0.0,
        1.0
      ],
      "name": "1f3e7f3919424d4894cc30a24d6abf31.fbx"
    },
    {
      "children": [
        3,
        5,
        7
      ],
      "name": "RootNode"
    },
    {
      "children": [
        4
      ],
      "matrix": [
        1.0,
        0.0,
        0.0,
        0.0,
        0.0,
        1.0,
        0.0,
        0.0,
        0.0,
        0.0,
        1.0,
        0.0,
        0.0,
        0.0,
        0.5482462048530579,
        1.0
      ],
      "name": "polySurface21"
    },
    {
      "mesh": 0,
      "name": "polySurface21_M_sockets_0"
    },
    {
      "children": [
        6
      ],
      "name": "polySurface20_f_2693_1"
    },
    {
      "mesh": 1,
      "name": "polySurface20_f_2693_1_M_Cover_0"
    },
    {
      "children": [
        8
      ],
      "name": "pCylinder41"
    },
    {
      "mesh": 2,
      "name": "pCylinder41_M_Mobo_0"
    }
  ],
  "samplers": [
    {
      "magFilter": 9729,
      "minFilter": 9987,
      "wrapS": 10497,
      "wrapT": 10497
    }
  ],
  "scene": 0,
  "scenes": [
    {
      "name": "Sketchfab_Scene",
      "nodes": [
        0
      ]
    }
  ],
  "textures": [
    {
      "sampler": 0,
      "source": 0
    },
    {
      "sampler": 0,
      "source": 1
    },
    {
      "sampler": 0,
      "source": 2
    },
    {
      "sampler": 0,
      "source": 3
    },
    {
      "sampler": 0,
      "source": 4
    },
    {
      "sampler": 0,
      "source": 5
    },
    {
      "sampler": 0,
      "source": 6
    },
    {
      "sampler": 0,
      "source": 7
    },
    {
      "sampler": 0,
      "source": 8
    },
    {
      "sampler": 0,
      "source": 9
    }
  ]
}
